<mxfile host="Electron" modified="2024-05-18T19:32:59.767Z" agent="Mozilla/5.0 (Windows NT 10.0; Win64; x64) AppleWebKit/537.36 (KHTML, like Gecko) draw.io/24.2.5 Chrome/120.0.6099.109 Electron/28.1.0 Safari/537.36" etag="JhHL-GJhBREAT5kTiOLb" version="24.2.5" type="device">
  <diagram id="wWHQazjNRqfxOG4ulopr" name="Page-1">
    <mxGraphModel dx="1235" dy="731" grid="1" gridSize="10" guides="1" tooltips="1" connect="1" arrows="1" fold="1" page="1" pageScale="1" pageWidth="850" pageHeight="1100" math="1" shadow="0">
      <root>
        <mxCell id="0" />
        <mxCell id="1" parent="0" />
        <mxCell id="9D8QLBMQT9ND9zGjebU7-1" value="" style="shape=image;verticalLabelPosition=bottom;labelBackgroundColor=default;verticalAlign=top;aspect=fixed;imageAspect=0;image=data:image/png,iVBORw0KGgoAAAANSUhEUgAAAqgAAAFUCAIAAABnYln0AAAAA3NCSVQICAjb4U/gAAAXFElEQVR4nO3d3XUaSbcG4NJZcw8TASgC4QhAEQhHAI7AOAIzEUiOQDgC8UUgJgJrIhATAa0IdC56HY4+2+PRT/Xvfp4ryasW1dW73K+66a4+eXx8TABADP/T9AYAAPUR/AAQiOAHgEAEPwAEIvgBIBDBDwCBCH4ACETwA0Aggh8AAhH8ABCI4AeAQAQ/AAQi+AEgEMEPAIEIfgAIRPADQCCCHwACEfwAEIjgB4BABD8ABCL4ASAQwQ8AgQh+AAhE8ANAIIIfAAIR/AAQiOAHgEAEPwAEIvgBIBDB321FURRFUU+bNog2XoDsBH+3bTabzWZTT5s2iDZegOxOHh8fm94GXu/09DSldH9/X0ObNog2XoDsnPF32Ha73e/3+/1+u91W3aYNoo0XoAqCv8O+fPny3Q/VtWmDaOMFqIJL/V213+9PT08Hg0FK6eHh4f7+fjweV9SmDaKNF6Aizvi7ar1ep5Tm8/l8Pj/+WlGbNog2XoCqPOZ2OByWy+VwOEwpLZfLw+GQvYtWaWS8h8Oh7PH+/r68Q204HH7Xda42bdDL8fqf0vQWQVD5g//i4uLpHxaLxSJ7F63SyHgvLy9TStPptPx1Op2mlC4vL6to0wa9HK//KU1vEQSVP/jfdgGCF7i5uSn3+c3NTUppPB4/LUT51XWuNm0QbbzQWi9LBVpG8HfVaDR6uttHo1H6IdJytWmDaOOFNntZKtAyLvW/VUvGW17Ens1m5a+z2Sz9w4Xut7dpgx6MtyUzpzbRxttXgr8HKrm57/g/fLFY9P4WnpaM93A4lI+oHW9bGwwGP97alqVNG/RgvC2ZObWJNt6+Evw9UFX9ok2ONox3sViUh9TjD9W1aYN+jLcNM6dO0cbbPyrYA1Ut4HNyclJOjio+vIXaMN5yaZrycamiKH6xfM3b27RBP8bbhplTp2jj7R8V7AEL+PTHeDyeTqflC2en0+lP0ytXmzaINl6ALAR/r6xWq+9+qK5NG0QbL8DbudSfR3vGW56w7vf7Gtq0QdfH256ZU49o4+0fFeyB35reADJ7zjlrrjZtEG28AG/kjD+P9oy3KIqUUnmrWtVt2qDr423PzKlHtPH2jwr2gODPI9p4ySXazIk23v5RwR5wcx8ABCL4ASAQwQ8AgQh+AAhE8ANAIIIfAAIR/AAQiOAHgEAEPwAEIvgBIBDBDwCBCH4ACETwA0Aggh8AAhH8ABCI4AeAQAQ/AAQi+AEgEMEPAIH8Vumnn5+fj8fjyWSyWCyGw2GlfQH8k6IoUkq/PgrlakMVVDCjas/4d7vdZrNZrVanp6dfv36ttC+Af7LZbDabTT1tqIIKZnTy+PhY3afvdruiKK6urv7888+U0mw2u729ra67Bp2cnKSUKt2Z9FK0mdPUeE9PT1NK9/f3NbTpNxXsg8da3N7eDgaDlNJyuaynx5rVuTPpk2gzp5Hx3tzclP3e3NxU3ab3VLAH6qvft2/fyuy/vr6urdPaRDt8k0u0mdPIeGezWdnvbDaruk3vqWAPVHup/zubzebDhw+LxaJ/X7FEu2BLLtFmTv3j3e/3p6en5VnHw8PD/f39eDyuqE0EKtgDtT7OV/61VX7fD1CD9XqdUprP5/P5/PhrRW2oggrmV+flhfJ+itFoVGen9ah/Z9IPcWbO4XBYLpfleJfL5eFwqKfT8sGt+/v78vgzHA6/6zpXm95Twd6o9YhzfX2dUlosFnV2Wo84h2/yijNzLi4unp5y1HMcuLy8TClNp9Py1+l0mlK6vLysok3vqWBv1HpzX/kHl5v74CjOzHnF9chcjrdwlzd1j8fjpxtWftGbq03NqqrWz9Q/uiMVzKu+x/nK1O/l6f5jpMM3ecWZOfUfUkvffbc4Go3SDwGQq039qqrWzzQywKSCFai219vb2+12e3yC4niZpX8aLCGdFmfmNHKh+EflJd/j01zl0emnl4Xf3qZS9c8cFcyrh8H/3R81o9Gol1f4j+Icvskrzsw5HA7H5FgsFk3dV3U4HMoHuo43eQ0Ggx9vBMvSplL1zxwVzKvB//vVvqTn6OHhoXz6E4hpOBxut9vyONDgSh7D4XA+n3/9+vX4NNd8Pv/ulS252vSMCvaGtfrziLYMC7lEmzltGG+5kEt5iC+K4heLvby9TXWa2pMqmEuTe7KeCwvW6oefijZzWjLe8mmu9Msbj3K1qUhTe1IFc2lwT9a0ct9sNtvtdoPBwCsRgcatVqvvfqiuDVVQwbewVn8ebbj8RRdFmzntGW95UXe/39fQpgqRL/WXVPDVarq5r2StfqAlnnOGl6sNVVDBV6v1jL+8k2I0GtX/t1XV2vNXMN0Sbea0Z7xFUaSUfn0Xd642VXDGr4KvVusZ/263S/933t8JL30E8fnt2/DfhuqYOe33nAN9rjZUQQVfrb7X8t7d3X369Cl1KvgBoGdqOuPf7Xbv378vimKxWBxf7Nh+zq54HTMHaK3KF/B5eHi4uroqL/JPp9PyByCm9nxD3HW+4++6Hn7H/913lqPRaL1ed+hcHwB6qabv+K3VDwBtUFXwl+sC3t7e3tzcTKfToiiWy+X5+XlF3QEAz1HTc/y73W4+nz88PCyXy+vr6xp6BFrIN8S5+I6/6xrck/Ut4HN3dzebzR4eHq6vr7vyZX91X0/4b9NvZs4/ERu5CP6ua3BP1vcc/2Qyubq6Sv+3jA8AUD9r9f/K8/8W81cwT5k5QGvVd8Z/5BgHAE2pNfg7t1Y/APSMtfoBIJCagn+3252fn3durX4A6Blr9efhFi1eJ9rMiTbe6nicr+us1Q8A1MFa/QAQiLX6gf779OlTURRNbwWvp4IZWas/D9978TrRZk6D30xPJpPr6+vJZFJz1xWJ9h2/CmZU06X+2Wy22+0Gg8Fms9lsNvV0CnB0d3f37t27P/74o+kN4ZVUMBdr9QOBrNfrd+/e3d3dNb0hvJIKvl2tK/d1bq1+oE9ub29Ho5ETx+5SwSys1Q9EMZvN7u7uPn78mFJar9fn5+f7/b7pjeIFVDALa/UDgQyHw6urq9vb28FgsNvt3r179+XLl6Y3ihdQwbezVj8Qzmw22+/3FxcXRVGsVisnjp2jgm9hrX4gouFwuN1ub25ujieOHjjqFhV8NWv15xHtaWxyiTZzWvj0ebm82H/+85+U0nw+v76+Hg6HNW/eK7RwTzbVrwq+uOuKeo22Vn+0wze5RJs5LYyN0mazWa1WDw8Pw+Hw+vp6Pp/XuHWv0do92VS/KviCrisN/ul0Oh6PJ5PJcrnsxJ9grxbt8E0u0WZOa2MjpbTf75fLZfm8cftPHNu8J5vqVwWf23Wlwe9wBr8Wbea0OTZKV1dX6/W6PHG8ublp7c3I7d+TTfWrgv+qgef4AVprtVrd3d2VrxY7Pz/3bpjOUcF/JfgB/st4PN7tdp8/f04pXV1dvXv3rq93JfeVCv6aS/15RBsvuUSbOe2/UPzU3d3dcrn866+/Ukqr1ery8rKSjXuVbu3JpvpVwZ9yxg9Ed3Jy8t2DSKXJZHJ3d/f0xNG7YdpJBV9E8AP8ynq9/vbt29nZmXfDdJQKfkfwA/yLyWSy2+2O74Zx4tg5KviU7/jziDZecok2c9r5DfHzt2q32y2Xy7///juldHV1VQZJI9q5J5vqVwVfxBk/wHM9fS2sd8N0kQomZ/y5RBsvuUSbOT+9A6s2x/38nM34dVF2u918Pi9XiVmv1/WfODZ75t0UFczTteDPItp4ySXazOlNbKT/fjfMbDa7vr4ej8dv38hnEvzPb/xPYlYwCf5coo2XXMyceuT6hvhH2+12uVzW/26YaDNHBTPyHT/A683n8/1+f3FxURTF+/fv379/b4HYbglYQcEP8CbD4XC73V5fXw8Gg+12e3p6ut1um94oXiBaBV3qzyPaeMnFzKlHdReKn6rztbDRZo4KZuSMHyCP8t0wl5eX5Ymjd8N0TpAKCn4gusfHx4wnXsfXwu73e6+FrYcKvojgB8is0tfCFkXx4cOH8ucPHz70LJNaoucVfKxGpR/eQtHGSy5mTj2a2s/lu2HK3lerVZbPvLi4eHoMXywWWT625VQwIzf35RFtvORi5tSj2f28Xq+reyPccDg8HA4VfXh7qGBGLvUDVKvS1e781ViDnlVQ8ANUpXwB/Hq9Til9/Pgxy3Xa7y4U17bSXEz9rGCWYfyo0g9voWjjJRczpx6N7OcyLVJKo9Ho9vY218ceDodjciwWi8PhkOuT20wFM/Idfx7RxksuZk49at7P+/3+w4cP5X3gHz9+XK/X2deBiTZzVDCj3+rvEqDHvnz5sl6vi6IYjUabzWY2mzW9RbxM7yso+AHyeHqaeHFxsdlsqlvwlSoEqaCb+wAy2Gw25TIvg8Hg5uZmu932MjN6LE4FnfEDvEm5EFv5Prcenyb2WLQKCn6A19tut+Wqq4PBYLPZeLiucwJWUPAD9al0IZTne85m/Ovt1k9PE6fT6WazGY/HebavxVSwB976HX9RFKFeERFtvORi5vTMbrc7PT3dbreDweDy8nK32wXJjN4IXcG3LALw6uWFz87OurjoRLTxkouZc1SOq9P9Hg6H1WpVfuB0Or2/v8/ysS/Vgz3ZVL/BK/j4+NjApf6zs7PdbtfvWyeeijZecjFzWmi323348GG/36eULi8vj/lBV6hgSm/+c+NwOJSvLJxMJr84NTkcDpPJJHX/DCbaeMnFzCllOew00u/T08Szs7Nv377l2rbX6e6ebKpfFfz/rt/+Ef96ROvZsSzaeMnFzHnsbGx8+/atLE1K6fPnzxk37NU6uieb6lcF/6vrLJ/yiyNaL49l0cZLLmZOF2Pj+KaWNpwmHnVxTzbVrwp+33WuD/rpEa3Hx7Jo4yWX4DOnW7Hx9DQx1ytZc+nWnmyqXxX8edcZP+u7I1rvj2XRxksukWdOh2Kjoley5tKhPdlUvyr4j13n/binR7QIx7Jo4yWXsDOnE7Fxf39/fCHbx48f21mXTuzJpvpVwX/pOvsnHo9oQY5l0cZLLjFnTvtj4+rqqnyEsp2niUft35NN9auC/+rk2H1GRVGUf20FeQo52njJJeDMKVdareKw8/Z+u/VK1jbvyab6VcHndl1Rr+XqpG3e6XlFGy+5RJs5rY2NzWbz6dOnDr2ppbV7sql+VfAFXTfSKxBTC2Ojo69kbeGebKpfFXwpb+cD4gr4StaeUcFXEPxARGFfydobKvhqb30tL0DnhH4lay+o4FsIfiCQoig+ffp0fn5eFMV0Or27uwv6frbOUsG3c6kfiMIrWbtOBbNwVz9Qn2bvCS+dnZ1tNpvjEu4d1cK762vot6SCb+RSPxDI58+f7+7uup4Zkang27nUD4TQj9PEyFQwF2f8QP99/PjRaWKnqWBGvuMH6tPg95o9E+07/v7xHT8AUAfBDwCBCH4ACETwA0Aggh8AAhH8ABCI4AeAQAQ/AAQi+AEgEMEPAIEIfgAIRPADQCCCHwACEfwAEIjgB4BABD8ABCL4ASAQwQ8AgQh+AAhE8ANAIIIfAAIR/AAQiOAHgEAEPwAEIvgBIBDBDwCBCH4ACETwA/1XFEVRFPW0oQoqmJHgB/pvs9lsNpt62lAFFczo5PHxseltAKI4OTlJKdV/2Dk9PU0p3d/f19CmHk3tSRXMpak9mZzxA7233W73+/1+v99ut1W3oQoqmJfgB3ruy5cv3/1QXRuqoIJ5udQP1Kf+y5v7/f709HQwGKSUHh4e7u/vx+NxRW3qFOdSvwpm54wf6LP1ep1Sms/n8/n8+GtFbaiCCub3CFC9w+GwXC7Lw85yuTwcDvV0OhwOU0r39/fl/VzD4fC7rnO1qVn9B3AVzKvBCBb8QB0uLi6ennIsFosaOr28vEwpTafT8tfpdJpSury8rKJNzeqPDRXMS/ADPfe2S5NvcnNzU27Dzc1NSmk8Hj/dsPKL3lxtalZVtX6m/tEdqWBegh+oQ/2H1NJoNHq6GaPRKP0QALna1K+qav1MIwNMKlgBwQ/UoZELxT8qL/nOZrPy19lslv7hsvDb2/SMCvaG4AfqcDgcjsmxWCyauq/qcDiUD3Qdb/IaDAY/3giWpU3PqGBv/Jb3qgXATw2Hw+12Wz673OBi6cPhcD6ff/369fg013w+L+/3zt6mZ1SwNyzgA9SnwUVLjsqFXMpDfFEUv1js5e1t+kcFe8ACPkAs4/F4Op2Wr2edTqc/PdbnakMVVPCNBD8Qzmq1+u6H6tpQBRV8C5f6gfq04UJxqTy92+/3NbTpExXsATf3ARE95wwvVxuqoIKv5owfqE97zheLokgp/fou7lxt+kQFe0DwA/VpT2zwOirYA27uA4BABD8ABCL4ASAQwQ8AgQh+AAhE8ANAIIIfAAIR/AAQiOAHgEAEPwAEIvgBIBDBDwCBCH4ACETwA0Aggh8AAhH8ABCI4AeAQAQ/AAQi+AEgEMEPAIEIfgAIRPADQCCCHwACEfwAEIjgB4BAfmt6A4AQiqL4+vVr01vB66lgbwh+oFr7/f6PP/7YbrdFUaSURqNR01vEy6hgz7jUD1Rlu92en5+fnp5uNpuiKKbT6c3NzX6/b3q7eC4V7CVn/EBm5TXhq6urMiEGg8F8Pl+v1+PxuOlN41lUsN+c8QP5PT4+Pj4+lj+fnJycnJw0uz28lAr22MmxtAB5bbfbq6urP//8s/x1NputVquLi4tmt4rnU8FeEvxAtfb7/Xq93m63Dw8PKaXxeLxarRaLxXA4bHrTeBYV7BnBD9ShKIrNZnN1dfX333+nlIbD4Xw+//z5s6+Nu0IFe0PwA7Vy9bjrVLDrBD/QAFePu04Fu8td/UAznt4r/vQecrpCBTvKc/xArbbb7ZcvX3a7XfnrdDpdrVbz+bzZreL5VLDrBD9QB2vCdJ0K9obgB6r140rvq9VquVz6MrgrVLBnBD9QFdeEu04Fe0nwA5m5Jtx1Kthv7uoH8rPSe9epYI95jh+oipVeuk4Fe0nwA9Wy0kvXqWDPCH6gDlZ67zoV7A3BD9TK1eOuU8GuE/xAA1w97joV7C539QPNsNJ716lgR3mOH6iVNWG6TgW7TvADdbAmTNepYG8IfqBaVnrvOhXsGcEPVMU14a5TwV4S/EBmrgl3nQr2m7v6gfys9N51KthjnuMHqmKll65TwV4S/EC1rPTSdSrYM4IfqIOV3rtOBXtD8AO1cvW461Sw6wQ/0ABXj7tOBbvLXf1AM6z03nUq2FGe4wdqZU2YrlPBrhP8QH3G43F5a5g1YTpKBXvAd/xAfcorw5eXl1Z67ygV7AHBD9SnjA2Hne5SwR5wcx8ABCL4ASAQwQ8AgQh+AAhE8ANAIIIfAAIR/AAQiOAHgEAEPwAEIvgBIBDBDwCBCH4ACETwA0Aggh8AAhH8ABCI4AfyK4qiKIqmt4LXU8EeE/xAZkVR/P7777///vvJD8oGP/57aTKZCJs2UMF+E/xAK5ydne12u+Fw2PSG8Eoq2BWCH8hsOBweDoezs7OU0mQyORwOj//gcDhMJpMkM1pGBftN8AP5DYfD3W53dnZ2d3d3fn7+08u/RVGcn5/f3d3JjBZSwR4T/EAlfp0cMqP9VLCvBD9QlX9KDpnRFSrYSyePj49NbwPQZ0VRzGazv/76azKZ3N7eppRkRreoYM8IfqByT5MjpSQzOkcF+0TwA3U4JkdyB3g3qWBvCH6gJmVypJRkRkepYD8IfqA+5d1hMqO7VLAHBD8ABOJxPgAIRPADQCCCHwACEfwAEIjgB4BABD8ABCL4ASAQwQ8AgQh+AAhE8ANAIIIfAAIR/AAQiOAHgEAEPwAEIvgBIBDBDwCBCH4ACETwA0Aggh8AAhH8ABCI4AeAQAQ/AAQi+AEgEMEPAIEIfgAIRPADQCCCHwAC+V9zJC5/dxpQ5wAAAABJRU5ErkJggg==;" parent="1" vertex="1">
          <mxGeometry x="120" y="130" width="680" height="340" as="geometry" />
        </mxCell>
        <mxCell id="9D8QLBMQT9ND9zGjebU7-3" value="&lt;font style=&quot;font-size: 15px;&quot;&gt;$$18mH$$&lt;/font&gt;" style="text;html=1;strokeColor=none;fillColor=none;align=center;verticalAlign=middle;whiteSpace=wrap;rounded=0;" parent="1" vertex="1">
          <mxGeometry x="160" y="210" width="50" height="30" as="geometry" />
        </mxCell>
        <mxCell id="9D8QLBMQT9ND9zGjebU7-5" value="&lt;font style=&quot;font-size: 15px;&quot;&gt;$$100nF$$&lt;/font&gt;" style="text;html=1;strokeColor=none;fillColor=none;align=center;verticalAlign=middle;whiteSpace=wrap;rounded=0;" parent="1" vertex="1">
          <mxGeometry x="250" y="210" width="50" height="30" as="geometry" />
        </mxCell>
        <mxCell id="9D8QLBMQT9ND9zGjebU7-6" value="&lt;font style=&quot;font-size: 15px;&quot;&gt;$$10nF$$&lt;/font&gt;" style="text;html=1;strokeColor=none;fillColor=none;align=center;verticalAlign=middle;whiteSpace=wrap;rounded=0;" parent="1" vertex="1">
          <mxGeometry x="440" y="210" width="40" height="30" as="geometry" />
        </mxCell>
        <mxCell id="9D8QLBMQT9ND9zGjebU7-7" value="&lt;font style=&quot;font-size: 15px;&quot;&gt;$$1.1k\Omega$$&lt;/font&gt;" style="text;html=1;strokeColor=none;fillColor=none;align=center;verticalAlign=middle;whiteSpace=wrap;rounded=0;fontColor=#000000;" parent="1" vertex="1">
          <mxGeometry x="260" y="140" width="50" height="20" as="geometry" />
        </mxCell>
        <mxCell id="9D8QLBMQT9ND9zGjebU7-9" value="&lt;font style=&quot;font-size: 15px;&quot;&gt;$$0.7k\Omega$$&lt;/font&gt;" style="text;html=1;strokeColor=none;fillColor=none;align=center;verticalAlign=middle;whiteSpace=wrap;rounded=0;fontColor=#000000;" parent="1" vertex="1">
          <mxGeometry x="340" y="140" width="50" height="20" as="geometry" />
        </mxCell>
        <mxCell id="9D8QLBMQT9ND9zGjebU7-10" value="&lt;font style=&quot;font-size: 15px;&quot;&gt;$$22k\Omega$$&lt;/font&gt;" style="text;html=1;strokeColor=none;fillColor=none;align=center;verticalAlign=middle;whiteSpace=wrap;rounded=0;" parent="1" vertex="1">
          <mxGeometry x="530" y="180" width="50" height="20" as="geometry" />
        </mxCell>
        <mxCell id="9D8QLBMQT9ND9zGjebU7-11" value="&lt;font style=&quot;font-size: 15px;&quot;&gt;$$22k\Omega$$&lt;/font&gt;" style="text;html=1;strokeColor=none;fillColor=none;align=center;verticalAlign=middle;whiteSpace=wrap;rounded=0;" parent="1" vertex="1">
          <mxGeometry x="530" y="350" width="50" height="20" as="geometry" />
        </mxCell>
        <mxCell id="9D8QLBMQT9ND9zGjebU7-12" value="&lt;font style=&quot;font-size: 15px;&quot;&gt;$$3.3k\Omega$$&lt;/font&gt;" style="text;html=1;strokeColor=none;fillColor=none;align=center;verticalAlign=middle;whiteSpace=wrap;rounded=0;" parent="1" vertex="1">
          <mxGeometry x="440" y="380" width="50" height="30" as="geometry" />
        </mxCell>
        <mxCell id="9D8QLBMQT9ND9zGjebU7-13" value="&lt;font style=&quot;font-size: 15px;&quot;&gt;$$2.2k\Omega$$&lt;/font&gt;" style="text;html=1;strokeColor=none;fillColor=none;align=center;verticalAlign=middle;whiteSpace=wrap;rounded=0;" parent="1" vertex="1">
          <mxGeometry x="590" y="380" width="50" height="30" as="geometry" />
        </mxCell>
        <mxCell id="9D8QLBMQT9ND9zGjebU7-15" value="&lt;font style=&quot;font-size: 15px;&quot;&gt;$$220\Omega$$&lt;/font&gt;" style="text;html=1;strokeColor=none;fillColor=none;align=center;verticalAlign=middle;whiteSpace=wrap;rounded=0;" parent="1" vertex="1">
          <mxGeometry x="680" y="350" width="50" height="20" as="geometry" />
        </mxCell>
        <mxCell id="9D8QLBMQT9ND9zGjebU7-16" value="&lt;font style=&quot;font-size: 15px;&quot;&gt;$$220\Omega$$&lt;/font&gt;" style="text;html=1;strokeColor=none;fillColor=none;align=center;verticalAlign=middle;whiteSpace=wrap;rounded=0;" parent="1" vertex="1">
          <mxGeometry x="680" y="180" width="50" height="20" as="geometry" />
        </mxCell>
        <mxCell id="A9k_reFBLics2_fQSI1--1" value="" style="rounded=0;whiteSpace=wrap;html=1;strokeColor=#ff0000;strokeWidth=3;dashed=1;fillColor=none;dashPattern=1 1;" vertex="1" parent="1">
          <mxGeometry x="250" y="130" width="150" height="60" as="geometry" />
        </mxCell>
        <mxCell id="A9k_reFBLics2_fQSI1--3" value="&lt;font style=&quot;font-size: 15px;&quot;&gt;$$b$$&lt;/font&gt;" style="text;html=1;strokeColor=none;fillColor=none;align=center;verticalAlign=middle;whiteSpace=wrap;rounded=0;" vertex="1" parent="1">
          <mxGeometry x="400" y="140" width="40" height="30" as="geometry" />
        </mxCell>
      </root>
    </mxGraphModel>
  </diagram>
</mxfile>
